<?xml version="1.0" standalone="no"?>
<!DOCTYPE svg PUBLIC "-//W3C//DTD SVG 20010904//EN"
 "http://www.w3.org/TR/2001/REC-SVG-20010904/DTD/svg10.dtd">
<svg version="1.0" xmlns="http://www.w3.org/2000/svg"
 width="338.000000pt" height="338.000000pt" viewBox="0 0 338.000000 338.000000"
 preserveAspectRatio="xMidYMid meet">
<metadata>
Created by potrace 1.11, written by Peter Selinger 2001-2013
</metadata>
<g transform="translate(0.000000,338.000000) scale(0.100000,-0.100000)"
fill="#000000" stroke="none">
<path d="M0 1690 l0 -1690 1690 0 1690 0 0 1690 0 1690 -1690 0 -1690 0 0
-1690z m3008 1415 c28 -9 54 -19 56 -24 3 -5 -1 -29 -8 -55 -17 -57 -11 -60
10 -6 16 39 17 40 35 24 35 -31 34 -77 -1 -138 -44 -78 -74 -96 -173 -106 -45
-4 -106 -13 -135 -20 -47 -10 -72 -9 -184 10 -75 13 -144 19 -164 15 -43 -8
-43 -2 1 24 19 11 35 26 35 34 0 7 -14 32 -31 55 -34 47 -33 64 8 112 47 57
95 73 233 80 212 11 264 11 318 -5z m-989 -270 c16 -8 47 -17 70 -21 22 -4 46
-13 53 -21 17 -20 13 -82 -6 -101 -14 -14 -22 -13 -83 6 -157 49 -333 58 -544
29 -89 -13 -135 -25 -202 -55 -98 -43 -107 -50 -89 -61 7 -4 14 -17 14 -28 2
-18 5 -18 37 -7 20 7 43 13 51 14 9 0 27 14 42 30 18 21 35 30 57 30 16 0 45
9 64 20 31 18 42 19 125 11 50 -5 100 -14 111 -20 30 -16 50 -13 27 4 -30 23
-13 28 63 18 58 -8 73 -7 85 6 13 12 23 13 73 2 51 -11 112 -30 121 -37 2 -1
-10 -28 -26 -60 -16 -33 -35 -84 -42 -114 -7 -30 -17 -64 -23 -75 -6 -11 -27
-65 -47 -119 -19 -55 -40 -101 -46 -103 -14 -5 -35 42 -28 62 3 8 14 17 25 20
10 4 19 12 19 20 0 7 3 20 6 29 5 12 0 16 -20 16 -22 0 -28 6 -33 30 -7 40
-80 82 -97 58 -6 -8 -22 -18 -34 -22 -21 -7 -23 -12 -17 -49 9 -53 12 -57 36
-57 11 0 29 -5 39 -10 16 -9 18 -15 9 -37 -15 -41 7 -83 59 -112 10 -5 9 -17
-4 -55 l-17 -49 -14 27 c-7 14 -18 26 -23 26 -17 0 -11 -26 10 -45 11 -10 20
-25 20 -34 0 -14 -2 -14 -11 -1 -9 12 -10 11 -6 -6 2 -12 -2 -32 -10 -45 -13
-23 -13 -23 -9 10 4 30 -1 40 -33 73 -41 40 -81 49 -133 29 -21 -8 -24 -15
-22 -50 2 -46 -4 -50 -31 -21 -22 24 -34 15 -44 -32 -7 -32 -7 -32 -40 47 -17
44 -44 102 -58 128 -24 46 -24 48 -5 38 57 -30 148 1 172 58 7 17 16 31 20 31
3 0 6 10 4 23 -1 12 -3 27 -3 33 -1 15 -54 79 -66 81 -6 1 -23 5 -38 8 -16 4
-27 3 -27 -3 0 -6 10 -12 22 -14 24 -3 36 -34 20 -50 -6 -6 -16 -6 -29 0 -14
8 -24 5 -42 -9 -33 -27 -51 -24 -58 12 -6 31 -6 31 -26 11 -11 -11 -20 -34
-21 -50 -1 -28 -16 -36 -16 -9 -1 7 -12 26 -26 42 -13 17 -34 62 -45 100 -12
39 -26 75 -31 82 -5 7 -6 18 -2 24 4 7 3 9 -4 5 -14 -8 -36 30 -26 46 4 6 3 8
-4 5 -11 -8 -42 72 -42 110 0 34 61 68 192 105 144 40 220 47 446 42 135 -3
190 -8 211 -19z m328 -105 c90 -40 240 -158 337 -264 106 -117 216 -260 216
-282 0 -8 12 -38 26 -66 30 -60 24 -87 -26 -113 -42 -22 -55 -15 -73 38 -17
50 -76 153 -134 236 -35 50 -155 172 -248 254 -32 28 -217 132 -220 124 -1 -1
-9 -14 -18 -29 -16 -27 -16 -27 25 -57 29 -22 53 -31 80 -31 27 0 40 -5 48
-20 6 -10 29 -25 51 -31 22 -7 49 -24 60 -38 67 -88 93 -129 102 -160 9 -30
12 -32 15 -13 6 35 19 27 59 -37 22 -34 46 -61 58 -63 21 -3 79 -97 90 -146 6
-28 4 -30 -37 -40 -23 -6 -44 -10 -45 -8 -2 2 4 20 12 40 12 28 13 45 5 74
-12 48 -92 122 -131 122 -17 0 -117 -82 -124 -102 -9 -25 20 -123 43 -146 11
-11 31 -26 43 -33 21 -11 12 -15 -99 -54 -66 -24 -137 -55 -157 -71 -25 -19
-39 -24 -47 -16 -7 7 -5 10 8 9 13 -1 20 6 22 22 5 36 27 52 66 49 43 -3 53 6
35 29 -11 15 -10 15 9 -1 12 -11 22 -14 22 -8 0 18 -46 43 -88 49 -56 8 -95
-27 -96 -88 -1 -33 -6 -47 -21 -56 -32 -19 -48 -17 -35 6 14 26 13 44 -2 39
-7 -3 -14 -17 -15 -33 -1 -15 -7 -33 -14 -39 -9 -8 -10 -8 -5 2 10 16 -11 16
-21 -1 -4 -7 -30 -21 -58 -32 -27 -10 -66 -25 -85 -34 -19 -8 -40 -14 -46 -13
-5 1 -39 -9 -74 -23 -35 -14 -67 -25 -72 -25 -18 0 -6 58 23 113 17 32 41 87
55 123 13 35 47 110 75 167 48 95 108 251 130 341 5 21 24 59 41 84 17 25 44
79 59 120 15 41 39 92 54 113 30 45 56 50 122 19z m-1270 -22 c41 -46 35 -65
-28 -97 -40 -20 -180 -139 -236 -201 -92 -102 -208 -287 -237 -380 -15 -47
-29 -90 -32 -96 -2 -6 11 -15 30 -21 34 -10 34 -10 56 38 15 32 21 57 17 77
-4 21 -1 34 11 45 16 14 17 13 19 -20 2 -46 55 -103 94 -103 15 0 30 4 33 9 3
4 -6 6 -19 3 -25 -4 -82 24 -71 35 3 3 12 0 20 -6 8 -7 20 -10 26 -6 5 3 10 2
10 -4 0 -6 7 -8 15 -5 21 9 19 32 -5 39 -11 3 -20 13 -20 21 0 8 -6 14 -12 14
-9 0 -9 3 1 9 8 5 12 15 9 23 -6 14 16 41 26 31 3 -4 6 3 6 15 0 13 -6 22 -16
22 -8 0 -12 -4 -9 -10 3 -5 0 -7 -8 -4 -9 3 -24 -7 -37 -23 -17 -22 -21 -37
-17 -72 3 -27 2 -38 -4 -30 -5 8 -9 33 -9 55 0 48 35 92 82 101 15 3 25 9 22
14 -7 11 -54 -8 -81 -33 l-23 -21 0 28 c0 21 15 42 68 92 73 70 116 97 138 89
9 -3 14 1 14 14 0 20 -15 28 -22 11 -1 -4 -13 -12 -25 -15 -42 -13 -26 19 32
65 30 24 53 50 50 56 -2 7 6 24 18 37 33 36 129 98 138 89 4 -4 17 -32 28 -61
19 -48 19 -52 3 -44 -23 12 -112 0 -137 -18 -33 -24 -65 -76 -65 -105 0 -36
35 -92 69 -110 39 -20 112 -13 146 14 42 32 56 56 58 100 l1 40 46 -87 c44
-84 45 -88 28 -106 -26 -29 -34 -100 -14 -131 28 -42 101 -61 108 -27 2 11 17
-6 46 -53 28 -48 38 -73 31 -80 -7 -7 -14 -4 -23 7 -7 10 -28 21 -47 24 -19 4
-41 12 -49 19 -36 29 -67 27 -106 -9 l-37 -34 16 -44 c9 -23 21 -63 27 -88 7
-25 21 -55 33 -67 11 -13 18 -23 14 -23 -4 0 -53 15 -109 34 -57 19 -140 40
-185 46 -46 7 -81 15 -78 19 2 4 -9 6 -24 3 -26 -4 -28 -1 -24 21 6 30 -22 87
-42 87 -8 0 -15 5 -15 10 0 19 -22 10 -48 -20 -15 -16 -32 -30 -39 -30 -7 0
-13 -5 -13 -11 0 -5 -4 -8 -9 -5 -5 3 -43 12 -84 20 -86 17 -153 47 -161 74
-10 31 22 131 79 241 111 217 406 526 506 530 15 1 34 -8 46 -21z m628 2 c8
-12 -40 -24 -62 -15 -17 7 -16 8 2 15 28 12 53 12 60 0z m160 1 c3 -5 1 -12
-4 -15 -12 -8 -41 3 -41 15 0 12 37 12 45 0z m-515 -65 c0 -17 -13 -26 -60
-43 -54 -19 -57 -16 -20 22 35 36 80 47 80 21z m963 -48 c9 -5 17 -13 17 -19
0 -16 -32 -23 -49 -11 -9 7 -26 16 -38 22 -38 16 -28 32 15 24 20 -4 45 -11
55 -16z m-1404 -154 c-6 -8 -18 -14 -27 -14 -13 0 -12 3 3 20 20 22 43 17 24
-6z m171 12 c0 -3 -4 -8 -10 -11 -5 -3 -10 -1 -10 4 0 6 5 11 10 11 6 0 10 -2
10 -4z m44 -27 c-3 -5 -10 -7 -15 -3 -5 3 -7 10 -3 15 3 5 10 7 15 3 5 -3 7
-10 3 -15z m711 -35 c29 -19 33 -59 8 -86 -17 -19 -53 -25 -53 -9 0 5 -9 7
-20 4 -11 -3 -21 -1 -21 3 -9 71 -9 73 19 87 36 20 39 20 67 1z m-715 -19 c0
-8 -4 -15 -9 -15 -13 0 -22 16 -14 24 11 11 23 6 23 -9z m1458 -4 c22 -19 30
-41 14 -41 -5 0 -16 8 -24 18 -37 42 -31 56 10 23z m-1508 -1 c0 -5 -5 -10
-11 -10 -5 0 -7 5 -4 10 3 6 8 10 11 10 2 0 4 -4 4 -10z m-260 -35 c0 -15 -40
-58 -48 -51 -2 2 4 18 13 35 16 33 35 41 35 16z m680 -36 c0 -5 -7 -9 -15 -9
-15 0 -20 12 -9 23 8 8 24 -1 24 -14z m80 11 c0 -5 -4 -10 -10 -10 -5 0 -10 5
-10 10 0 6 5 10 10 10 6 0 10 -4 10 -10z m347 4 c-3 -3 -12 -4 -19 -1 -8 3 -5
6 6 6 11 1 17 -2 13 -5z m-58 -28 c-13 -14 -26 -22 -29 -19 -5 4 37 43 47 43
3 0 -5 -11 -18 -24z m-779 4 c0 -5 -4 -10 -10 -10 -5 0 -10 5 -10 10 0 6 5 10
10 10 6 0 10 -4 10 -10z m420 -45 c0 -8 -7 -15 -15 -15 -9 0 -12 6 -9 15 4 8
10 15 15 15 5 0 9 -7 9 -15z m327 -32 c-3 -10 -5 -4 -5 12 0 17 2 24 5 18 2
-7 2 -21 0 -30z m870 22 c8 -22 -6 -33 -17 -15 -13 20 -12 30 0 30 6 0 13 -7
17 -15z m-1384 -23 c-12 -9 -27 -28 -32 -42 -7 -18 -10 -20 -10 -7 -1 18 41
67 56 67 4 0 -2 -8 -14 -18z m1294 -8 c-3 -3 -12 -4 -19 -1 -8 3 -5 6 6 6 11
1 17 -2 13 -5z m-1242 -112 c-9 -9 -45 40 -42 58 2 10 9 26 17 36 14 15 16 12
23 -36 4 -29 5 -55 2 -58z m1275 38 c0 -5 -4 -10 -10 -10 -5 0 -10 5 -10 10 0
6 5 10 10 10 6 0 10 -4 10 -10z m-94 -37 c-10 -10 -19 5 -10 18 6 11 8 11 12
0 2 -7 1 -15 -2 -18z m64 -64 c0 -5 -7 -9 -15 -9 -15 0 -20 12 -9 23 8 8 24
-1 24 -14z m-1980 -6 c0 -28 -32 -103 -41 -97 -12 7 -11 71 1 95 13 24 40 25
40 2z m2070 13 c0 -3 -4 -8 -10 -11 -5 -3 -10 -1 -10 4 0 6 5 11 10 11 6 0 10
-2 10 -4z m-990 -36 c0 -5 -4 -10 -10 -10 -5 0 -10 5 -10 10 0 6 5 10 10 10 6
0 10 -4 10 -10z m950 0 c0 -5 -4 -10 -10 -10 -5 0 -10 5 -10 10 0 6 5 10 10
10 6 0 10 -4 10 -10z m-75 -10 c3 -5 1 -10 -4 -10 -6 0 -11 5 -11 10 0 6 2 10
4 10 3 0 8 -4 11 -10z m-1297 -16 c40 -8 52 -50 26 -89 -14 -22 -22 -25 -48
-20 -17 4 -37 14 -43 23 -18 22 -16 62 2 62 8 0 15 7 15 15 0 17 4 18 48 9z
m1014 -55 c-15 -5 -21 -13 -16 -21 4 -7 4 -10 -1 -6 -4 4 -15 2 -24 -4 -9 -7
-5 0 8 15 14 15 32 27 40 26 10 0 7 -4 -7 -10z m-751 -154 c24 -51 25 -73 4
-55 -8 7 -15 8 -15 4 0 -5 -12 -17 -27 -26 -21 -13 -23 -18 -10 -18 9 0 17 4
17 9 0 11 31 24 38 16 3 -3 -3 -12 -14 -20 -19 -15 -19 -15 1 -8 11 3 23 11
27 17 5 7 13 4 22 -9 20 -26 20 -34 1 -41 -17 -7 -195 46 -195 58 0 4 9 9 20
13 10 3 31 20 45 36 29 35 34 103 10 135 -8 10 -15 25 -15 33 0 17 63 -83 91
-144z m117 137 c2 -7 -3 -12 -12 -12 -9 0 -16 7 -16 16 0 17 22 14 28 -4z
m120 -39 c-11 -32 -33 -86 -49 -121 -16 -35 -29 -72 -29 -83 0 -14 -6 -19 -17
-17 -11 2 -35 37 -60 88 -23 47 -42 88 -42 92 -1 4 14 1 32 -7 17 -8 31 -18
30 -23 -1 -4 7 -13 18 -20 15 -10 19 -10 19 2 0 15 54 59 62 51 3 -3 5 1 5 8
0 11 42 87 47 87 2 0 -6 -26 -16 -57z m-973 37 c15 0 40 -61 28 -69 -5 -3 -12
-14 -16 -23 -5 -14 -16 -17 -49 -15 -38 2 -43 5 -51 34 -8 28 -6 36 14 58 16
16 31 24 44 20 11 -2 25 -5 30 -5z m935 0 c0 -5 -5 -10 -11 -10 -5 0 -7 5 -4
10 3 6 8 10 11 10 2 0 4 -4 4 -10z m-39 -33 c-1 -12 -15 -9 -19 4 -3 6 1 10 8
8 6 -3 11 -8 11 -12z m-71 -7 c0 -5 -2 -10 -4 -10 -3 0 -8 5 -11 10 -3 6 -1
10 4 10 6 0 11 -4 11 -10z m1322 -45 c28 -82 25 -310 -7 -466 -31 -152 -78
-308 -103 -340 -11 -13 -29 -43 -41 -66 -19 -37 -26 -43 -54 -43 -36 0 -77 24
-77 45 0 8 13 33 29 57 35 53 75 147 108 253 29 98 61 362 51 425 -4 25 -11
71 -14 103 l-7 58 -42 -3 c-39 -3 -42 -5 -33 -22 6 -10 8 -34 5 -52 -4 -24 0
-40 14 -58 12 -15 18 -38 17 -63 0 -21 4 -55 11 -75 11 -32 10 -43 -7 -82 -11
-24 -23 -57 -27 -74 -3 -16 -17 -44 -30 -63 -24 -32 -26 -54 -3 -31 7 7 16 12
21 12 10 0 7 -12 -21 -87 -11 -28 -17 -63 -14 -78 5 -29 -29 -116 -61 -152
-16 -17 -24 -20 -39 -12 -17 9 -16 12 13 36 67 56 77 134 25 190 -31 34 -37
37 -87 36 -29 -1 -63 -7 -76 -14 -31 -16 -77 -85 -69 -104 6 -17 -9 -21 -20
-4 -9 14 -168 117 -201 130 -20 7 -23 12 -13 23 22 28 80 8 80 -27 0 -16 24
-30 34 -20 13 13 5 51 -15 79 l-21 29 27 -29 c22 -24 26 -36 22 -63 -4 -23 -2
-33 7 -33 10 0 11 12 6 47 -8 53 -54 103 -93 103 -28 0 -73 -23 -70 -36 3 -17
-32 -13 -57 7 -21 16 -22 19 -7 19 11 0 15 4 11 12 -4 7 -3 8 4 4 7 -4 17 -4
23 0 8 5 7 9 -2 14 -13 9 -59 -8 -59 -21 0 -5 -7 -6 -16 -2 -13 5 -13 7 -2 14
9 6 8 9 -8 9 -11 0 -28 6 -38 13 -17 13 -16 15 12 38 16 14 35 42 41 62 11 31
9 41 -8 75 -11 22 -33 49 -48 60 l-28 21 29 10 c31 12 216 44 222 38 2 -2 6
-25 9 -52 4 -27 11 -57 16 -67 11 -20 59 -48 84 -48 8 0 15 -7 15 -15 0 -8 5
-15 11 -15 6 0 8 -9 4 -21 -7 -20 -6 -20 14 -2 l21 18 -22 8 c-22 8 -21 10 15
24 20 8 37 19 37 24 0 5 7 9 15 9 18 0 45 50 45 82 -1 20 -13 59 -34 108 -10
24 67 49 160 52 45 2 80 5 77 8 -12 12 106 39 162 37 l60 -2 17 -50z m-1518
24 c-3 -5 -10 -7 -15 -3 -5 3 -7 10 -3 15 3 5 10 7 15 3 5 -3 7 -10 3 -15z
m235 -42 c0 -21 -1 -21 -9 -2 -12 28 -12 37 0 30 6 -3 10 -16 9 -28z m-274 -7
c-5 -8 -11 -8 -17 -2 -6 6 -7 16 -3 22 5 8 11 8 17 2 6 -6 7 -16 3 -22z m1425
-16 c18 -40 19 -49 7 -61 -11 -11 -16 -12 -24 -1 -13 17 -25 108 -14 108 5 0
19 -21 31 -46z m-2359 -99 c-4 -170 11 -267 70 -452 39 -119 58 -164 93 -210
24 -33 49 -70 55 -82 l12 -22 28 20 c16 11 31 18 35 14 3 -4 -7 17 -23 46 -15
29 -42 61 -60 72 -17 10 -31 27 -31 38 0 11 -11 32 -24 48 -41 50 -47 71 -49
183 -1 91 -4 105 -14 87 -15 -28 -19 -16 -28 75 -4 39 -12 72 -21 79 -15 12
-19 100 -8 158 5 24 12 31 30 31 23 0 33 -15 15 -22 -6 -1 -15 -23 -22 -48
-11 -40 -10 -51 8 -91 18 -40 27 -49 68 -63 47 -16 48 -15 99 12 45 24 53 33
69 80 13 39 14 58 7 73 -13 23 -19 23 110 0 58 -10 120 -16 138 -13 32 4 33 3
21 -15 -15 -25 -49 -47 -49 -32 0 5 -4 7 -10 4 -5 -3 -15 3 -21 14 -10 15 -18
17 -36 10 -16 -6 -22 -5 -18 1 7 11 -8 14 -18 4 -10 -11 35 -75 64 -89 43 -22
79 -18 111 12 15 15 28 32 28 39 0 19 16 25 45 18 l26 -6 -23 -25 c-22 -24
-22 -25 -3 -22 11 2 24 14 30 27 12 26 38 31 28 5 -6 -16 -5 -16 10 -4 11 8
27 11 44 6 26 -6 27 -8 10 -20 -11 -8 -15 -19 -10 -30 3 -10 2 -16 -3 -13 -5
4 -8 -12 -6 -37 5 -55 49 -100 110 -112 l43 -8 -50 -38 c-27 -21 -77 -56 -110
-77 l-60 -39 -17 35 c-27 57 -69 86 -122 83 -28 -2 -47 1 -49 8 -3 7 -12 9
-21 6 -15 -6 -15 -5 -3 10 18 22 42 22 34 1 -5 -14 -2 -13 16 2 l22 19 -23 6
c-13 3 -28 2 -34 -3 -6 -4 -13 -6 -15 -4 -2 3 -9 -6 -16 -20 -6 -13 -8 -22 -4
-20 4 3 13 1 21 -4 13 -8 11 -12 -7 -25 -13 -9 -23 -21 -23 -26 0 -6 -7 -17
-15 -25 -32 -33 -2 -124 55 -166 l30 -22 -37 -39 c-21 -21 -60 -50 -88 -64
-27 -14 -75 -47 -105 -73 -65 -56 -134 -93 -159 -85 -34 10 -72 62 -127 176
-64 128 -65 132 -100 284 -32 144 -56 303 -49 335 3 14 7 49 10 79 7 71 17 83
74 79 l46 -3 -4 -130z m849 85 c0 -5 -4 -10 -10 -10 -5 0 -10 5 -10 10 0 6 5
10 10 10 6 0 10 -4 10 -10z m1055 -10 c3 -5 1 -10 -4 -10 -6 0 -11 5 -11 10 0
6 2 10 4 10 3 0 8 -4 11 -10z m-1715 -10 c0 -5 -4 -10 -10 -10 -5 0 -10 5 -10
10 0 6 5 10 10 10 6 0 10 -4 10 -10z m-50 -10 c0 -5 -4 -10 -10 -10 -5 0 -10
5 -10 10 0 6 5 10 10 10 6 0 10 -4 10 -10z m1750 -34 c0 -8 -4 -17 -9 -21 -12
-7 -24 12 -16 25 9 15 25 12 25 -4z m68 -4 c2 -7 -3 -12 -12 -12 -9 0 -16 7
-16 16 0 17 22 14 28 -4z m52 9 c0 -6 -4 -13 -10 -16 -5 -3 -10 1 -10 9 0 9 5
16 10 16 6 0 10 -4 10 -9z m-1788 -16 c0 -5 -5 -11 -11 -13 -6 -2 -11 4 -11
13 0 9 5 15 11 13 6 -2 11 -8 11 -13z m282 -81 c17 -7 24 -13 15 -14 -20 0
-69 37 -69 53 0 7 5 4 11 -6 6 -11 25 -25 43 -33z m1486 36 c0 -5 -2 -10 -4
-10 -3 0 -8 5 -11 10 -3 6 -1 10 4 10 6 0 11 -4 11 -10z m-610 -5 c0 -9 -30
-65 -35 -65 -11 0 -55 24 -55 30 0 4 15 15 33 24 33 16 57 20 57 11z m-1245
-15 c3 -5 1 -10 -4 -10 -6 0 -11 5 -11 10 0 6 2 10 4 10 3 0 8 -4 11 -10z
m825 0 c0 -5 -4 -10 -10 -10 -5 0 -10 5 -10 10 0 6 5 10 10 10 6 0 10 -4 10
-10z m550 0 c0 -5 -4 -10 -10 -10 -5 0 -10 5 -10 10 0 6 5 10 10 10 6 0 10 -4
10 -10z m430 -10 c0 -5 -4 -10 -10 -10 -5 0 -10 5 -10 10 0 6 5 10 10 10 6 0
10 -4 10 -10z m-1709 -13 c-1 -12 -15 -9 -19 4 -3 6 1 10 8 8 6 -3 11 -8 11
-12z m354 3 c-3 -5 -12 -10 -18 -10 -7 0 -6 4 3 10 19 12 23 12 15 0z m690
-23 c21 -12 54 -42 73 -67 l35 -45 -45 -13 c-36 -10 -49 -20 -67 -52 -14 -26
-21 -53 -20 -75 2 -19 1 -37 -3 -40 -7 -8 -20 125 -18 195 1 30 -1 70 -5 88
-9 38 -3 39 50 9z m210 13 c4 -6 -7 -10 -27 -9 -27 0 -30 2 -13 9 27 12 33 12
40 0z m-376 -17 c7 -5 -33 -56 -47 -61 -8 -2 -12 10 -12 37 0 40 1 41 28 35
15 -4 29 -9 31 -11z m-139 -13 c0 -5 -7 -7 -15 -4 -8 4 -12 10 -9 15 6 11 24
2 24 -11z m204 4 c11 -27 7 -171 -4 -154 -8 12 -10 9 -10 -13 0 -49 -26 -85
-69 -97 -48 -13 -79 -2 -114 39 -31 37 -46 25 -16 -13 36 -46 67 -56 122 -39
37 11 53 22 69 48 11 19 22 35 24 35 2 0 4 -48 4 -107 0 -106 0 -106 -20 -88
-13 12 -18 25 -14 37 7 24 -18 44 -65 53 -41 8 -81 -24 -81 -65 0 -14 -5 -31
-11 -37 -8 -8 -8 -17 0 -32 16 -28 4 -71 -19 -71 -10 0 -22 -9 -25 -20 -3 -11
-10 -20 -14 -20 -6 0 -7 -34 -2 -63 0 -4 10 -2 20 5 11 7 17 16 14 21 -3 5 -9
3 -14 -4 -4 -7 -11 -11 -14 -8 -9 9 8 44 23 47 8 1 11 -2 7 -8 -3 -5 -1 -10 5
-10 7 0 20 -10 29 -21 26 -33 107 -43 149 -18 17 10 32 17 32 16 7 -43 22
-213 21 -242 0 -22 -2 -94 -4 -160 -5 -175 -6 -182 -23 -199 -22 -23 -119 -21
-251 5 -192 36 -482 174 -598 283 -58 54 -66 67 -60 87 9 29 44 69 60 69 6 0
34 -21 62 -48 109 -102 233 -172 420 -238 112 -40 143 -47 243 -53 121 -8 130
-5 130 35 0 17 -10 23 -55 33 -48 11 -59 10 -80 -3 -20 -13 -28 -14 -56 -2
-18 8 -50 11 -75 8 -36 -4 -50 0 -76 20 -18 14 -52 35 -75 47 -24 12 -50 32
-59 46 -19 29 -40 34 -24 6 22 -43 10 -41 -67 8 -36 24 -68 38 -79 35 -20 -5
-117 61 -142 98 -13 18 -11 22 24 51 22 17 55 49 74 71 19 22 82 85 138 140
57 55 113 117 123 138 11 21 22 38 25 38 3 0 2 -4 -1 -10 -3 -5 -1 -10 5 -10
6 0 9 -4 5 -9 -3 -5 -1 -13 5 -16 8 -5 7 -11 -1 -21 -6 -8 -8 -14 -3 -14 5 0
-4 -9 -20 -19 -16 -11 -34 -17 -41 -15 -17 7 -29 -27 -13 -38 9 -6 5 -7 -9 -3
-16 4 -23 2 -23 -7 0 -19 82 -22 124 -4 46 19 70 65 61 117 -4 21 -11 41 -16
45 -12 7 -12 34 1 34 6 0 10 -7 10 -16 0 -8 4 -13 9 -10 5 4 7 -4 3 -16 -4
-15 -2 -19 7 -13 7 4 11 18 8 32 -7 38 15 71 110 164 48 48 104 102 123 121
41 41 46 43 54 22z m231 -4 c3 -5 1 -10 -4 -10 -6 0 -11 5 -11 10 0 6 2 10 4
10 3 0 8 -4 11 -10z m46 -13 c-1 -12 -15 -9 -19 4 -3 6 1 10 8 8 6 -3 11 -8
11 -12z m109 -7 c0 -5 -4 -10 -10 -10 -5 0 -10 5 -10 10 0 6 5 10 10 10 6 0
10 -4 10 -10z m-1510 -31 c0 -10 -4 -19 -10 -19 -5 0 -10 12 -10 26 0 14 4 23
10 19 6 -3 10 -15 10 -26z m814 10 c-3 -5 -10 -7 -15 -3 -5 3 -7 10 -3 15 3 5
10 7 15 3 5 -3 7 -10 3 -15z m106 1 c-19 -12 -30 -12 -30 -1 0 10 31 20 40 14
2 -2 -2 -8 -10 -13z m470 -24 c0 -11 -19 -15 -25 -6 -3 5 1 10 9 10 9 0 16 -2
16 -4z m-496 -27 c-3 -5 -10 -7 -15 -3 -5 3 -7 10 -3 15 3 5 10 7 15 3 5 -3 7
-10 3 -15z m536 -9 c0 -5 -2 -10 -4 -10 -3 0 -8 5 -11 10 -3 6 -1 10 4 10 6 0
11 -4 11 -10z m866 -96 c-4 -13 -11 -24 -16 -24 -14 0 -12 37 2 63 11 20 12
20 16 4 2 -10 1 -29 -2 -43z m-768 -37 c37 -35 86 -77 109 -94 24 -16 39 -34
35 -38 -4 -5 -1 -5 5 -1 8 4 37 -10 70 -35 32 -23 51 -39 42 -36 -23 8 -26
-79 -3 -104 9 -11 13 -19 8 -20 -5 0 0 -4 11 -9 12 -5 28 -3 40 5 33 20 74 24
87 7 7 -8 13 -18 13 -21 0 -3 8 -6 18 -6 40 -3 36 -21 -14 -59 -33 -26 -52
-49 -56 -68 -5 -27 -38 -56 -51 -44 -3 3 -14 -2 -25 -11 -13 -12 -35 -18 -68
-18 -27 0 -49 -4 -49 -8 0 -14 27 -18 68 -8 23 5 42 5 42 1 0 -15 -53 -60 -71
-60 -10 0 -42 -9 -71 -21 -37 -15 -67 -20 -100 -16 -44 4 -48 2 -48 -17 0 -13
3 -17 8 -9 8 12 62 6 62 -7 0 -5 -34 -18 -75 -31 -43 -12 -75 -27 -75 -35 0
-18 -13 -24 -88 -40 -105 -22 -102 -23 -102 45 l0 58 48 -23 c58 -29 84 -30
138 -4 58 28 78 61 70 114 -10 57 -29 82 -81 106 -39 18 -50 19 -90 9 -47 -12
-94 -55 -96 -87 -2 -38 -16 50 -18 114 -2 63 0 70 20 79 36 16 64 62 64 104 0
39 -14 59 -52 79 -30 16 -33 15 -33 -10 0 -42 -9 -12 -20 70 -10 77 -10 85 7
98 23 17 39 18 24 0 -18 -22 4 -65 42 -79 9 -3 17 -13 17 -21 0 -26 48 -48 90
-41 49 8 63 25 65 78 1 23 6 63 10 88 5 30 3 54 -4 68 -22 39 9 23 77 -42z
m-1488 0 c0 -40 -17 -24 -26 23 -7 32 -6 34 9 21 9 -7 17 -27 17 -44z m1275
23 c-5 -8 -11 -8 -17 -2 -6 6 -7 16 -3 22 5 8 11 8 17 2 6 -6 7 -16 3 -22z
m95 10 c0 -5 -4 -10 -10 -10 -5 0 -10 5 -10 10 0 6 5 10 10 10 6 0 10 -4 10
-10z m-150 -19 c0 -6 -4 -13 -10 -16 -5 -3 -10 1 -10 9 0 9 5 16 10 16 6 0 10
-4 10 -9z m-710 -5 c0 -3 -4 -8 -10 -11 -5 -3 -10 -1 -10 4 0 6 5 11 10 11 6
0 10 -2 10 -4z m790 -16 c0 -5 -2 -10 -4 -10 -3 0 -8 5 -11 10 -3 6 -1 10 4
10 6 0 11 -4 11 -10z m-840 -8 c0 -13 -12 -22 -22 -16 -10 6 -1 24 13 24 5 0
9 -4 9 -8z m332 -14 c-7 -7 -12 -8 -12 -2 0 6 3 14 7 17 3 4 9 5 12 2 2 -3 -1
-11 -7 -17z m833 -8 c3 -6 -1 -7 -9 -4 -18 7 -21 14 -7 14 6 0 13 -4 16 -10z
m-1085 -35 c0 -8 -7 -15 -15 -15 -16 0 -20 12 -8 23 11 12 23 8 23 -8z m184 6
c4 -5 -3 -7 -14 -4 -23 6 -26 13 -6 13 8 0 17 -4 20 -9z m270 -8 c7 -8 11 -9
37 -12 6 0 9 -11 8 -23 -2 -13 1 -29 5 -37 6 -9 1 -20 -15 -32 -25 -19 -59
-25 -59 -10 0 5 -9 11 -20 14 -29 7 -27 63 3 88 25 21 30 22 41 12z m356 -2
c0 -5 9 -11 21 -14 17 -5 20 -12 17 -43 -3 -35 -6 -39 -40 -47 -30 -7 -41 -6
-55 9 -27 26 -26 66 0 86 23 19 57 24 57 9z m-868 -26 c0 -5 -5 -11 -11 -13
-6 -2 -11 4 -11 13 0 9 5 15 11 13 6 -2 11 -8 11 -13z m1734 -21 c-3 -8 -10
-12 -16 -9 -7 4 -6 14 2 28 12 24 24 8 14 -19z m-202 5 c-3 -5 -10 -7 -15 -3
-5 3 -7 10 -3 15 3 5 10 7 15 3 5 -3 7 -10 3 -15z m-1584 -9 c0 -5 -4 -10 -10
-10 -5 0 -10 5 -10 10 0 6 5 10 10 10 6 0 10 -4 10 -10z m315 -66 c-16 -25
-71 -55 -97 -53 -7 0 7 8 31 17 31 12 49 27 60 49 9 17 18 27 19 22 2 -5 -4
-21 -13 -35z m1350 26 c3 -5 -1 -10 -9 -10 -9 0 -16 5 -16 10 0 6 4 10 9 10 6
0 13 -4 16 -10z m-1155 -30 c0 -5 -2 -10 -4 -10 -3 0 -8 5 -11 10 -3 6 -1 10
4 10 6 0 11 -4 11 -10z m1050 -5 c0 -8 -4 -15 -9 -15 -13 0 -22 16 -14 24 11
11 23 6 23 -9z m-960 -10 c0 -8 -7 -15 -16 -15 -14 0 -14 3 -4 15 7 8 14 15
16 15 2 0 4 -7 4 -15z m810 -5 c22 -16 28 -27 25 -48 -2 -15 -4 -30 -4 -33 -1
-4 -17 -10 -36 -13 -48 -9 -85 15 -80 52 2 15 4 30 4 35 1 4 8 7 16 7 8 0 15
5 15 10 0 16 30 11 60 -10z m-910 -36 c0 -8 -5 -12 -10 -9 -6 4 -8 11 -5 16 9
14 15 11 15 -7z m145 6 c3 -5 1 -10 -4 -10 -6 0 -11 5 -11 10 0 6 2 10 4 10 3
0 8 -4 11 -10z m116 -7 c10 -55 -3 -83 -36 -83 -17 0 -16 9 6 68 8 21 28 31
30 15z m803 -14 c-3 -5 -10 -7 -15 -3 -5 3 -7 10 -3 15 3 5 10 7 15 3 5 -3 7
-10 3 -15z m-982 -14 c0 -5 -5 -11 -11 -13 -6 -2 -11 4 -11 13 0 9 5 15 11 13
6 -2 11 -8 11 -13z m-859 -47 c14 -24 21 -44 17 -46 -15 -6 -80 52 -80 71 0
33 37 18 63 -25z m797 22 c0 -5 -5 -10 -11 -10 -5 0 -7 5 -4 10 3 6 8 10 11
10 2 0 4 -4 4 -10z m60 -31 c0 -5 -7 -9 -15 -9 -15 0 -20 12 -9 23 8 8 24 -1
24 -14z m225 -8 c-3 -6 -16 -16 -28 -22 -20 -11 -20 -9 3 13 25 24 38 29 25 9z
m-55 -37 c0 -2 -11 -4 -25 -4 -14 0 -25 4 -25 9 0 4 11 6 25 3 14 -2 25 -6 25
-8z m803 -13 c-2 -6 3 -10 10 -8 6 1 11 -4 9 -11 -1 -8 2 -11 7 -8 10 7 61
-49 61 -67 0 -30 -73 -114 -163 -186 -165 -135 -463 -273 -613 -285 -89 -8
-97 -4 -113 51 -13 45 2 63 52 63 50 0 234 50 314 85 32 14 113 60 180 101 96
59 137 91 192 152 70 77 70 77 50 98 -10 11 -16 24 -12 27 10 10 28 2 26 -12z
m-33 -21 c0 -23 -41 -90 -56 -90 -30 0 -27 30 7 65 35 35 49 42 49 25z m-579
-133 c-1 -12 -15 -9 -19 4 -3 6 1 10 8 8 6 -3 11 -8 11 -12z m-67 -62 c-4 -8
-10 -15 -15 -15 -5 0 -9 7 -9 15 0 8 7 15 15 15 9 0 12 -6 9 -15z m-804 -40
c10 -12 10 -15 -3 -15 -8 0 -20 7 -27 15 -10 12 -10 15 3 15 8 0 20 -7 27 -15z
m900 5 c0 -5 -4 -10 -10 -10 -5 0 -10 5 -10 10 0 6 5 10 10 10 6 0 10 -4 10
-10z m-135 -10 c3 -5 1 -10 -4 -10 -6 0 -11 5 -11 10 0 6 2 10 4 10 3 0 8 -4
11 -10z m365 -30 c-14 -11 -34 -20 -45 -19 -19 0 -19 1 4 19 13 11 33 20 45
20 20 0 20 -1 -4 -20z m-325 -10 c3 -5 1 -10 -4 -10 -6 0 -11 5 -11 10 0 6 2
10 4 10 3 0 8 -4 11 -10z m-639 -31 c18 -20 18 -20 -11 -14 -17 4 -37 14 -45
21 -12 12 -11 14 11 14 14 0 34 -9 45 -21z m814 -28 c0 -12 -39 -25 -48 -16
-7 7 17 25 36 25 6 0 12 -4 12 -9z m-410 -48 c8 -7 -24 -22 -64 -29 -42 -7
-64 9 -44 33 9 11 94 8 108 -4z m110 -389 c0 -26 -31 -45 -61 -37 -20 6 -36
56 -19 61 6 2 16 10 23 17 17 18 57 -10 57 -41z m-541 2 c1 6 19 11 41 11 30
0 40 -4 41 -16 1 -9 5 -2 9 14 4 17 8 23 9 15 1 -12 18 -15 90 -14 58 0 95 5
105 13 14 12 16 9 16 -23 0 -28 -4 -36 -18 -36 -10 0 -23 5 -30 12 -9 9 -12 9
-12 1 0 -7 -13 -11 -30 -11 -23 1 -30 6 -31 22 l-2 21 -4 -21 c-5 -24 -45 -50
-62 -39 -6 3 -9 10 -7 14 3 4 -34 7 -82 6 -76 0 -87 2 -90 18 -2 12 4 20 17
24 12 3 21 10 22 17 1 6 5 0 9 -14 4 -14 8 -20 9 -14z m381 9 c0 4 7 2 15 -5
12 -10 15 -10 16 1 0 8 3 9 5 3 6 -15 -13 -64 -25 -64 -5 0 -7 10 -4 23 5 18
3 20 -8 10 -7 -7 -21 -13 -31 -13 -14 0 -18 8 -18 35 l0 35 25 -16 c14 -9 25
-13 25 -9z m212 14 c2 -6 43 -11 101 -12 94 -2 97 -2 97 -25 0 -13 -4 -20 -10
-17 -5 3 -19 1 -31 -6 -18 -9 -24 -8 -31 5 -5 9 -14 16 -21 16 -8 0 -8 -3 2
-9 9 -6 -1 -9 -28 -9 -34 -1 -44 3 -51 21 l-9 22 0 -22 c-1 -13 -5 -23 -11
-23 -5 0 -10 10 -11 23 -1 21 -1 21 -8 -3 l-7 -25 -5 25 c-6 29 -1 50 11 50 5
0 10 -5 12 -11z m231 -13 c7 2 13 -6 13 -21 2 -20 -1 -23 -11 -15 -10 8 -14 7
-18 -2 -3 -7 -5 5 -5 27 0 22 2 32 5 23 2 -9 10 -15 16 -12z m87 -6 c0 -5 -7
-7 -15 -4 -9 4 -15 0 -15 -10 0 -21 16 -20 32 2 10 15 25 19 68 18 49 -1 55
-3 58 -23 2 -13 -1 -23 -7 -23 -6 0 -11 10 -12 23 -1 21 -1 21 -9 -3 l-7 -25
-11 25 c-9 21 -11 22 -11 5 -1 -17 -9 -20 -56 -22 -52 -2 -55 -1 -55 22 0 18
5 25 20 25 11 0 20 -4 20 -10z"/>
<path d="M2617 2963 c-11 -27 -22 -52 -23 -58 -6 -30 -25 -65 -35 -65 -6 0 -8
7 -4 18 5 13 3 14 -6 5 -11 -11 -5 -33 9 -33 21 1 37 26 62 99 15 44 25 81 23
81 -2 0 -14 -21 -26 -47z"/>
<path d="M2527 2982 c-19 -21 -22 -42 -6 -42 5 0 7 5 4 11 -4 5 1 19 11 30 9
10 15 19 12 19 -3 0 -12 -8 -21 -18z"/>
<path d="M2565 2990 c3 -5 -1 -25 -9 -44 -15 -36 -12 -46 13 -46 11 0 12 3 4
11 -8 8 -7 20 3 44 13 31 10 45 -8 45 -5 0 -7 -4 -3 -10z"/>
<path d="M2963 2970 c-9 -23 -8 -30 1 -30 6 0 13 14 14 30 1 17 1 30 -1 30 -1
0 -8 -13 -14 -30z"/>
<path d="M3005 2968 c-4 -18 -11 -37 -15 -43 -5 -5 -10 -14 -12 -20 -1 -5 -7
-9 -11 -7 -5 1 -6 -2 -2 -7 6 -10 35 -4 35 8 0 3 7 27 15 54 8 26 10 47 5 47
-4 0 -12 -15 -15 -32z"/>
<path d="M2882 2953 l-1 -38 13 30 c13 30 12 45 -3 45 -4 0 -8 -17 -9 -37z"/>
<path d="M2920 2960 c0 -39 14 -39 17 0 1 17 -2 30 -7 30 -6 0 -10 -13 -10
-30z"/>
<path d="M2809 2978 c-7 -22 -7 -58 -1 -62 5 -3 9 10 10 29 1 19 -1 35 -3 35
-3 0 -5 -1 -6 -2z"/>
<path d="M2846 2954 c-10 -38 0 -41 12 -5 6 17 7 31 3 31 -5 0 -12 -12 -15
-26z"/>
<path d="M2763 2937 l-2 -32 14 25 c18 31 18 40 3 40 -8 0 -14 -14 -15 -33z"/>
<path d="M2642 2931 c-8 -22 -7 -31 1 -34 8 -3 13 8 14 29 4 42 -2 43 -15 5z"/>
<path d="M2686 2944 c-11 -28 -6 -44 12 -43 9 0 12 3 6 5 -6 3 -9 16 -6 29 5
28 -3 34 -12 9z"/>
<path d="M2730 2951 c0 -5 -3 -16 -6 -25 -3 -9 -2 -16 4 -16 5 0 12 11 14 25
3 14 1 25 -3 25 -5 0 -9 -4 -9 -9z"/>
<path d="M1502 2650 c-62 -38 -71 -111 -20 -157 20 -16 20 -15 -2 14 -60 83
44 188 138 139 18 -9 32 -13 32 -8 0 14 -48 32 -83 32 -18 0 -47 -9 -65 -20z"/>
<path d="M1798 2639 c-18 -10 -25 -39 -9 -39 12 0 33 28 29 39 -2 6 -9 6 -20
0z m12 -13 c0 -3 -4 -8 -10 -11 -5 -3 -10 -1 -10 4 0 6 5 11 10 11 6 0 10 -2
10 -4z"/>
<path d="M1506 2618 c-36 -32 -42 -69 -17 -99 16 -19 22 -22 32 -11 7 6 9 12
3 12 -5 0 -10 9 -10 20 0 11 4 20 9 20 5 0 6 7 3 16 -4 12 -1 14 14 9 14 -5
20 -2 20 10 0 10 4 13 13 8 20 -12 35 -12 47 2 9 10 7 16 -9 24 -32 18 -78 13
-105 -11z"/>
<path d="M1870 2601 c-23 -33 -25 -47 -9 -56 6 -4 9 -1 8 6 -1 8 3 26 9 40 9
23 16 26 44 24 18 -2 36 -4 41 -4 4 -1 7 -9 7 -19 0 -10 5 -23 11 -29 9 -9 6
-19 -9 -41 -20 -27 -23 -29 -57 -18 -19 6 -35 14 -35 18 0 5 -5 8 -11 8 -8 0
-8 -5 1 -15 7 -8 19 -15 26 -15 8 0 23 -5 34 -12 16 -10 23 -9 41 7 29 26 39
57 26 74 -6 7 -16 23 -22 35 -8 15 -21 22 -47 23 -31 2 -41 -3 -58 -26z"/>
<path d="M1692 2569 c2 -7 10 -15 17 -17 8 -3 12 1 9 9 -2 7 -10 15 -17 17 -8
3 -12 -1 -9 -9z"/>
<path d="M1313 2537 c-5 -7 -15 -24 -22 -39 -13 -25 -12 -30 13 -63 15 -19 33
-35 41 -35 31 0 64 20 77 48 13 26 13 33 -1 63 -14 30 -21 34 -58 36 -23 0
-46 -4 -50 -10z m70 -7 c23 0 40 -46 29 -79 -7 -20 -16 -26 -46 -28 -27 -1
-39 3 -43 15 -4 9 -12 21 -19 25 -11 6 -10 15 3 43 14 28 22 34 38 30 11 -3
28 -6 38 -6z"/>
<path d="M1780 2493 c1 -14 27 -43 39 -43 16 0 13 15 -7 33 -20 18 -32 22 -32
10z m31 -20 c13 -16 12 -17 -3 -4 -10 7 -18 15 -18 17 0 8 8 3 21 -13z"/>
<path d="M1649 2267 c6 -14 6 -28 1 -33 -5 -5 -5 -15 0 -24 8 -12 10 -10 10 8
0 12 5 22 11 22 8 0 7 6 -2 17 -8 9 -13 19 -11 22 2 3 -1 7 -7 9 -8 3 -8 -4
-2 -21z"/>
<path d="M1671 2201 c-28 -39 -26 -51 9 -90 26 -28 34 -32 63 -26 39 9 32 3
49 45 12 29 12 39 0 62 -7 16 -19 28 -25 29 -7 0 -26 2 -44 5 -26 3 -35 -1
-52 -25z m101 -15 c20 -23 23 -46 8 -46 -5 0 -10 -8 -10 -19 0 -15 -8 -19 -40
-19 -28 -1 -40 4 -40 13 0 8 -8 18 -17 23 -15 9 -15 12 1 46 15 32 19 35 49
29 18 -3 40 -15 49 -27z"/>
<path d="M2206 2523 c-4 -4 -18 -7 -33 -8 -16 0 -32 -9 -42 -25 -9 -14 -11
-21 -3 -16 14 8 16 -5 3 -19 -13 -14 4 -51 31 -69 32 -21 87 -6 127 34 61 62
171 16 171 -70 0 -11 5 -20 10 -20 16 0 11 33 -10 68 -37 60 -102 84 -160 58
-10 -4 -22 4 -35 25 -22 33 -49 52 -59 42z m39 -39 c26 -40 12 -80 -31 -88
-42 -8 -82 21 -69 51 5 10 7 26 6 35 -2 15 15 23 60 27 9 0 24 -11 34 -25z"/>
<path d="M2314 2429 c-24 -12 -48 -55 -39 -70 4 -5 13 -9 22 -9 9 0 14 3 10 6
-8 9 16 33 27 27 4 -3 12 1 17 8 7 11 9 10 9 -4 0 -14 5 -17 19 -12 14 4 21 0
26 -15 9 -28 35 -26 35 3 0 49 -79 90 -126 66z"/>
<path d="M2130 2246 c-51 -26 -67 -63 -31 -73 12 -3 21 -13 21 -25 0 -17 -5
-19 -25 -14 -63 16 -31 -84 35 -112 46 -20 55 -35 38 -65 -8 -17 -13 -18 -16
-7 -3 7 0 16 7 18 17 6 13 22 -5 22 -8 0 -12 -4 -9 -10 3 -5 1 -10 -5 -10 -6
0 -8 -4 -5 -10 3 -5 1 -19 -5 -30 -7 -13 -7 -20 0 -20 5 0 10 7 10 15 0 9 6
12 15 9 21 -8 45 19 38 45 -4 17 -1 21 19 21 14 0 33 9 43 20 20 22 40 27 29
8 -4 -7 -3 -9 1 -5 5 4 10 13 11 20 3 21 31 67 36 62 3 -3 -4 25 -16 62 -19
58 -27 71 -57 85 -45 24 -75 22 -129 -6z m16 -63 c-10 -10 -19 5 -10 18 6 11
8 11 12 0 2 -7 1 -15 -2 -18z m98 -4 c-3 -5 -10 -7 -15 -3 -5 3 -7 10 -3 15 3
5 10 7 15 3 5 -3 7 -10 3 -15z m-64 -74 c0 -8 -7 -15 -15 -15 -16 0 -20 12 -8
23 11 12 23 8 23 -8z m30 -45 c0 -5 -5 -10 -11 -10 -5 0 -7 5 -4 10 3 6 8 10
11 10 2 0 4 -4 4 -10z"/>
<path d="M2477 2246 c-6 -15 1 -26 15 -26 4 0 8 9 8 20 0 23 -15 27 -23 6z"/>
<path d="M2335 2080 c-30 -32 -30 -29 5 -100 4 -8 21 -18 39 -21 26 -5 38 -2
58 17 22 20 24 28 18 64 -4 25 -13 43 -23 46 -10 3 -25 10 -34 15 -26 14 -32
12 -63 -21z m59 3 c4 -4 15 -8 24 -8 9 0 19 -13 24 -33 11 -40 -13 -69 -58
-70 -25 0 -33 5 -46 33 -14 32 -14 36 5 60 21 25 38 31 51 18z"/>
<path d="M1983 2013 c-34 -17 -50 -56 -38 -92 4 -14 0 -20 -20 -25 -32 -8 -65
-61 -65 -105 l0 -34 26 24 27 24 -13 -25 c-7 -14 -19 -29 -26 -35 -10 -8 -7
-14 14 -29 l27 -20 -19 22 c-20 23 -9 31 12 10 7 -7 12 -8 12 -3 0 6 5 3 10
-5 7 -12 12 -12 22 -2 10 10 10 14 0 21 -15 9 -24 61 -11 61 5 0 9 7 9 15 0 8
4 15 10 15 5 0 17 9 27 19 10 11 34 23 53 28 29 8 36 15 43 47 7 29 6 41 -7
55 -9 10 -16 22 -16 28 0 10 -23 24 -38 22 -4 0 -21 -7 -39 -16z m67 -15 c0
-6 7 -19 16 -29 14 -16 14 -20 -1 -48 -9 -18 -20 -29 -25 -26 -5 3 -11 1 -15
-5 -9 -15 -18 -12 -46 14 -24 22 -26 27 -15 60 10 34 21 41 69 45 9 0 17 -4
17 -11z m-70 -125 c0 -12 -3 -14 -8 -6 -11 17 -68 -10 -77 -36 -3 -12 -11 -21
-16 -21 -17 0 -9 22 20 51 34 33 81 40 81 12z"/>
<path d="M930 2243 c5 -2 10 -12 10 -21 0 -15 -2 -15 -11 -2 -8 12 -9 10 -7
-9 5 -39 30 -40 26 0 -2 18 -9 34 -16 35 -7 1 -8 0 -2 -3z"/>
<path d="M1134 2223 c-25 -12 -33 -24 -38 -55 -8 -46 -4 -53 34 -73 27 -14 32
-13 62 3 29 17 33 24 33 61 0 36 -4 45 -30 60 -28 17 -33 18 -61 4z m58 -15
c20 -10 26 -20 26 -45 0 -18 -6 -37 -14 -44 -8 -6 -14 -8 -14 -5 0 4 -7 0 -16
-8 -14 -15 -18 -15 -45 1 -32 19 -32 18 -23 63 4 19 15 35 28 40 28 12 28 12
58 -2z"/>
<path d="M967 2077 c3 -5 -3 -7 -13 -5 -11 2 -18 -2 -16 -10 1 -7 -5 -26 -13
-42 -20 -39 -19 -73 5 -120 33 -64 92 -80 168 -46 45 20 62 49 62 106 0 86
-50 131 -142 127 -31 -1 -54 -6 -51 -10z m73 -47 c0 -5 -7 -10 -16 -10 -8 0
-12 5 -9 10 3 6 10 10 16 10 5 0 9 -4 9 -10z m-60 -40 c0 -5 -2 -10 -4 -10 -3
0 -8 5 -11 10 -3 6 -1 10 4 10 6 0 11 -4 11 -10z m139 -70 c1 -13 0 -13 -9 0
-5 8 -9 24 -9 35 l0 20 9 -20 c5 -11 9 -27 9 -35z m-84 31 c7 -12 -12 -24 -25
-16 -11 7 -4 25 10 25 5 0 11 -4 15 -9z m-64 -14 c-1 -12 -15 -9 -19 4 -3 6 1
10 8 8 6 -3 11 -8 11 -12z m109 -41 c0 -3 -4 -8 -10 -11 -5 -3 -10 -1 -10 4 0
6 5 11 10 11 6 0 10 -2 10 -4z"/>
<path d="M1290 1942 c0 -7 -4 -11 -8 -8 -5 3 -18 -6 -30 -19 -23 -26 -20 -31
18 -33 36 -2 58 34 36 56 -11 12 -16 13 -16 4z"/>
<path d="M739 1827 c6 -15 18 -22 40 -24 17 -2 31 2 31 7 0 6 -6 10 -12 10 -7
0 -25 6 -40 14 -25 13 -26 13 -19 -7z"/>
<path d="M2633 1804 c-37 -16 -43 -24 -48 -64 -6 -42 37 -81 82 -76 45 6 50
10 57 57 6 37 3 46 -21 71 -30 32 -27 31 -70 12z m65 -23 c23 -20 29 -46 12
-56 -6 -4 -8 -10 -5 -15 6 -10 -14 -26 -43 -33 -15 -3 -25 0 -29 9 -3 8 -11
14 -19 14 -9 0 -13 12 -11 38 2 30 6 38 25 40 12 2 22 8 22 13 0 15 23 10 48
-10z"/>
<path d="M2100 1650 c0 -13 11 -13 30 0 12 8 11 10 -7 10 -13 0 -23 -4 -23
-10z"/>
<path d="M2620 1596 c-41 -15 -46 -37 -10 -43 14 -2 26 -8 28 -13 2 -5 11 -6
20 -3 15 6 15 5 3 -11 -12 -14 -12 -19 -2 -25 10 -7 11 -13 1 -31 -9 -16 -9
-25 -1 -33 17 -17 42 14 48 61 5 36 2 45 -25 72 -17 16 -25 30 -18 30 32 0 71
-76 61 -121 -4 -16 -25 -46 -47 -69 -22 -22 -34 -40 -27 -40 17 0 88 86 95
116 6 25 -16 74 -48 104 -25 23 -30 23 -78 6z"/>
<path d="M2130 1551 c-32 -60 11 -129 73 -117 42 8 52 19 61 67 5 28 2 39 -14
54 -11 10 -20 13 -20 7 0 -7 4 -12 9 -12 14 0 23 -32 11 -44 -5 -5 -10 -18
-10 -27 0 -24 -55 -33 -85 -13 -20 13 -23 21 -18 47 6 33 21 50 35 41 4 -3 8
0 8 5 0 19 -39 12 -50 -8z"/>
<path d="M2340 1518 c-16 -7 -20 -12 -12 -15 8 -3 21 2 30 11 19 18 17 19 -18
4z"/>
<path d="M2360 1489 c0 -5 5 -7 10 -4 6 3 10 8 10 11 0 2 -4 4 -10 4 -5 0 -10
-5 -10 -11z"/>
<path d="M2049 1443 c-13 -16 -12 -17 4 -4 9 7 17 15 17 17 0 8 -8 3 -21 -13z"/>
<path d="M2376 1378 c-19 -38 -20 -51 -3 -81 6 -12 13 -24 14 -26 1 -2 17 -5
35 -7 27 -4 38 1 61 27 29 34 33 44 17 54 -5 3 -10 17 -10 30 0 26 -17 35 -65
35 -28 0 -36 -6 -49 -32z m100 -8 c0 -8 4 -23 9 -33 12 -28 -28 -65 -65 -59
-17 2 -30 10 -30 18 0 8 -4 14 -10 14 -20 0 -2 62 23 81 15 11 72 -6 73 -21z"/>
<path d="M2542 1314 c-28 -20 -28 -34 1 -26 21 5 37 19 37 35 0 11 -14 8 -38
-9z"/>
<path d="M2680 1280 c0 -11 2 -20 4 -20 2 0 13 -3 23 -6 16 -6 16 -5 -2 10
-11 10 -14 15 -7 11 6 -3 12 -2 12 3 0 6 -7 12 -15 16 -10 4 -15 -1 -15 -14z"/>
<path d="M833 1610 c-13 -5 -24 -14 -24 -20 -2 -15 -4 -22 -13 -48 -6 -18 -1
-29 23 -54 29 -29 32 -30 63 -18 46 18 50 24 53 66 2 29 -4 43 -23 61 -27 24
-43 27 -79 13z m71 -23 c21 -17 27 -28 20 -38 -5 -8 -7 -22 -6 -32 2 -11 -6
-21 -23 -27 -38 -14 -48 -12 -68 16 -23 31 -15 75 16 91 31 15 29 15 61 -10z"/>
<path d="M1101 1536 c-20 -21 -22 -29 -14 -67 7 -35 13 -44 36 -50 34 -9 35
-2 1 11 -16 6 -24 16 -22 27 1 10 -1 23 -5 30 -10 15 44 66 56 54 5 -5 15 -7
22 -5 15 6 46 -51 39 -71 -3 -8 -13 -15 -22 -17 -12 -2 -13 -6 -5 -11 20 -13
45 23 39 56 -9 43 -30 62 -69 65 -24 2 -39 -4 -56 -22z"/>
<path d="M739 1533 c-10 -11 -10 -14 -1 -9 6 4 12 2 12 -3 0 -6 -7 -11 -15
-11 -8 0 -15 -4 -15 -10 0 -17 18 -11 34 12 27 37 13 56 -15 21z"/>
<path d="M576 1503 c-8 -9 14 -33 30 -33 8 0 14 4 14 10 0 12 -35 31 -44 23z"/>
<path d="M674 1419 c-17 -22 -37 -124 -31 -150 7 -27 64 -69 93 -69 13 1 10 5
-12 14 -17 8 -39 24 -48 37 -18 26 -22 104 -6 114 6 4 7 11 4 17 -4 6 -1 14 6
18 7 4 11 13 8 20 -3 9 -6 9 -14 -1z"/>
<path d="M725 1409 c-4 -11 -4 -23 -1 -26 3 -4 6 1 6 10 0 10 7 17 16 17 8 0
12 5 9 10 -10 16 -23 12 -30 -11z"/>
<path d="M1277 1393 c-12 -12 -7 -22 8 -17 8 4 15 10 15 15 0 11 -14 12 -23 2z"/>
<path d="M685 1350 c-4 -6 -3 -10 2 -10 4 0 2 -4 -6 -9 -19 -12 -6 -63 23 -90
18 -17 33 -22 62 -19 26 2 38 7 36 16 -1 8 2 11 7 8 15 -10 25 14 12 27 -9 9
-14 9 -20 -1 -9 -15 -20 -15 -38 0 -9 7 -13 7 -13 -1 0 -6 -4 -11 -9 -11 -5 0
-7 9 -4 20 4 14 0 20 -10 20 -10 0 -14 8 -13 24 3 25 -18 43 -29 26z"/>
<path d="M819 1223 c-13 -16 -12 -17 4 -4 9 7 17 15 17 17 0 8 -8 3 -21 -13z"/>
<path d="M776 1137 c-26 -21 -27 -26 -20 -66 8 -38 13 -44 49 -57 37 -13 41
-13 57 7 10 11 22 18 27 15 15 -10 6 83 -10 98 -27 27 -72 28 -103 3z m99 -30
c18 -37 20 -29 -10 -61 -21 -23 -29 -26 -57 -18 -29 7 -33 12 -35 46 -4 72 71
96 102 33z"/>
<path d="M1714 1538 c-3 -5 -2 -8 3 -7 22 4 44 -2 39 -10 -3 -5 -16 -7 -28 -3
-13 3 -19 1 -15 -6 4 -5 15 -9 25 -7 9 2 26 4 36 4 19 1 19 1 1 19 -20 18 -53
24 -61 10z"/>
<path d="M1572 1444 c-12 -13 -17 -32 -21 -84 -1 -13 -2 -13 -11 0 -7 11 -12
12 -21 3 -9 -9 -15 -8 -26 3 -19 18 -43 18 -43 0 0 -23 50 -56 85 -56 47 0 76
27 80 76 3 30 0 46 -13 57 -15 13 -19 13 -30 1z m20 -30 c-3 -17 -7 -22 -12
-13 -9 13 -2 39 10 39 4 0 5 -12 2 -26z"/>
<path d="M1203 1044 c-18 -8 -33 -21 -33 -29 0 -10 -10 -15 -32 -15 -136 0
-180 -158 -69 -241 18 -13 27 -28 24 -38 -4 -13 -2 -13 10 2 14 17 33 24 23 9
-7 -11 56 -2 72 11 9 7 17 5 28 -9 15 -18 15 -18 10 6 -7 33 10 62 23 41 10
-15 5 74 -4 90 -8 12 6 39 20 39 13 0 35 49 35 77 0 14 -30 45 -60 62 -9 5
-28 3 -47 -5z m74 -28 c22 -23 22 -55 1 -82 -7 -9 -47 -12 -78 -5 -15 3 -30
44 -24 67 11 45 67 56 101 20z m-137 -66 c0 -5 -2 -10 -4 -10 -3 0 -8 5 -11
10 -3 6 -1 10 4 10 6 0 11 -4 11 -10z m-60 -36 c0 -8 -5 -12 -10 -9 -6 4 -8
11 -5 16 9 14 15 11 15 -7z m62 -9 c0 -5 -5 -11 -11 -13 -6 -2 -11 4 -11 13 0
9 5 15 11 13 6 -2 11 -8 11 -13z m-82 -35 c0 -5 -5 -10 -11 -10 -5 0 -7 5 -4
10 3 6 8 10 11 10 2 0 4 -4 4 -10z m125 0 c3 -5 1 -10 -4 -10 -6 0 -11 5 -11
10 0 6 2 10 4 10 3 0 8 -4 11 -10z m40 -10 c-3 -5 -10 -10 -16 -10 -5 0 -9 5
-9 10 0 6 7 10 16 10 8 0 12 -4 9 -10z m-75 -60 c0 -5 -4 -10 -10 -10 -5 0
-10 5 -10 10 0 6 5 10 10 10 6 0 10 -4 10 -10z"/>
<path d="M1186 982 c-7 -11 31 -48 41 -38 4 3 -2 16 -14 27 -11 12 -23 17 -27
11z"/>
<path d="M1548 887 c-7 -7 -21 -16 -32 -20 -13 -5 -17 -13 -12 -30 3 -12 6
-29 6 -37 0 -8 16 -28 35 -43 l36 -28 39 31 c33 26 38 35 30 50 -6 10 -10 28
-10 40 0 15 -11 25 -35 36 -42 17 -40 17 -57 1z m74 -31 c4 -6 6 -16 3 -23 -2
-7 0 -15 5 -18 17 -10 11 -23 -21 -45 -28 -20 -31 -21 -48 -6 -10 9 -23 16
-29 16 -18 0 -14 61 5 82 13 14 24 17 47 12 17 -4 34 -12 38 -18z"/>
<path d="M1484 702 c3 -6 2 -13 -4 -17 -6 -4 -7 -11 -4 -17 4 -7 2 -8 -5 -4
-6 4 -14 0 -17 -9 -5 -11 -10 -13 -19 -5 -9 8 -14 7 -17 -2 -4 -10 -9 -8 -22
5 -20 20 -32 22 -42 5 -12 -19 43 -58 82 -58 46 0 87 39 82 78 -2 17 -10 28
-22 30 -11 2 -16 0 -12 -6z"/>
<path d="M1530 670 c0 -55 -67 -101 -126 -86 -27 7 -68 42 -76 67 -3 8 -8 11
-12 7 -12 -11 13 -48 47 -68 46 -28 96 -26 140 8 30 22 36 33 37 65 0 20 -2
37 -5 37 -3 0 -5 -14 -5 -30z"/>
<path d="M2010 1173 c-56 -62 -66 -127 -27 -184 19 -28 31 -35 75 -42 29 -5
50 -12 48 -16 -3 -4 1 -8 9 -8 8 0 11 5 8 10 -4 7 1 8 13 3 10 -4 15 -4 11 0
-3 4 9 24 28 46 30 32 35 45 35 86 0 54 -17 85 -60 107 -39 20 -121 19 -140
-2z m25 -62 c-4 -17 -10 -29 -15 -26 -5 3 -4 19 2 36 13 38 22 31 13 -10z m85
-37 c0 -9 -5 -14 -12 -12 -18 6 -21 28 -4 28 9 0 16 -7 16 -16z m55 -14 c3 -5
-1 -10 -9 -10 -9 0 -16 5 -16 10 0 6 4 10 9 10 6 0 13 -4 16 -10z m-35 -50 c0
-5 -4 -10 -10 -10 -5 0 -10 5 -10 10 0 6 5 10 10 10 6 0 10 -4 10 -10z m-60
-10 c0 -5 -4 -10 -10 -10 -5 0 -10 5 -10 10 0 6 5 10 10 10 6 0 10 -4 10 -10z"/>
<path d="M1847 995 c-24 -18 -31 -70 -12 -99 22 -34 94 -38 102 -7 3 11 11 22
19 25 20 8 17 33 -6 66 -16 22 -27 28 -54 27 -19 0 -41 -6 -49 -12z m93 -25
l21 -29 -22 -31 c-43 -57 -122 -24 -102 44 8 29 18 35 75 45 4 0 16 -12 28
-29z"/>
<path d="M2300 969 c0 -5 7 -9 15 -9 20 0 55 -40 56 -64 1 -17 2 -18 6 -4 6
23 -30 74 -57 81 -11 3 -20 1 -20 -4z"/>
<path d="M2296 941 c-8 -13 4 -41 18 -41 6 0 4 -5 -4 -10 -13 -9 -13 -11 0
-20 13 -8 12 -10 -2 -10 -10 0 -18 -7 -18 -15 0 -8 -11 -17 -25 -21 -37 -9
-31 -31 9 -32 47 -2 86 35 86 83 0 47 -46 95 -64 66z"/>
<path d="M2150 860 c0 -5 5 -10 11 -10 5 0 7 5 4 10 -3 6 -8 10 -11 10 -2 0
-4 -4 -4 -10z"/>
<path d="M2371 858 c0 -9 -4 -25 -7 -35 -5 -14 -4 -15 5 -7 7 7 11 22 8 35 -2
13 -5 16 -6 7z"/>
<path d="M2074 819 c-17 -22 -23 -45 -15 -58 12 -19 33 13 29 45 -2 22 -5 25
-14 13z m3 -41 c-3 -8 -6 -5 -6 6 -1 11 2 17 5 13 3 -3 4 -12 1 -19z"/>
<path d="M1506 1193 c-3 -4 6 -17 21 -29 25 -20 29 -20 50 -7 18 12 21 19 12
29 -12 14 -70 19 -83 7z"/>
<path d="M1862 1232 c-32 -25 -15 -45 32 -37 48 9 53 21 18 39 -25 13 -30 13
-50 -2z"/>
<path d="M2351 1113 c1 -16 58 -53 64 -43 8 14 -3 30 -21 30 -8 0 -14 5 -14
10 0 6 -7 10 -15 10 -8 0 -15 -3 -14 -7z"/>
<path d="M1675 140 c3 -5 8 -10 11 -10 2 0 4 5 4 10 0 6 -5 10 -11 10 -5 0 -7
-4 -4 -10z"/>
<path d="M1160 124 c0 -8 5 -12 10 -9 6 4 8 11 5 16 -9 14 -15 11 -15 -7z"/>
<path d="M1325 131 c-3 -5 -1 -12 5 -16 5 -3 10 1 10 9 0 18 -6 21 -15 7z"/>
<path d="M1475 131 c-3 -5 -1 -12 5 -16 5 -3 10 1 10 9 0 18 -6 21 -15 7z"/>
<path d="M1550 124 c0 -8 5 -12 10 -9 6 4 8 11 5 16 -9 14 -15 11 -15 -7z"/>
<path d="M1940 124 c0 -8 5 -12 10 -9 6 4 8 11 5 16 -9 14 -15 11 -15 -7z"/>
<path d="M2130 125 c0 -8 5 -15 10 -15 6 0 10 7 10 15 0 8 -4 15 -10 15 -5 0
-10 -7 -10 -15z"/>
</g>
</svg>
